PathFileType	4	(X/Y/Z)	..\data\2014030\dynamic\2014030_C4_03.trc
DataRate	CameraRate	NumFrames	NumMarkers	Units	OrigDataRate	OrigDataStartFrame	OrigNumFrames
100.000000	100.000000	4	52	mm	100.000000	130	174
Frame#	Time	L_IAS			L_IPS			R_IPS			R_IAS			L_FTC			L_FLE			L_FME			L_FAX			L_TTC			L_FAL			L_TAM			L_FCC			L_FM1			L_FM2			L_FM5			R_FTC			R_FLE			R_FME			R_FAX			R_TTC			R_FAL			R_TAM			R_FCC			R_FM1			R_FM2			R_FM5			CV7			TV10			SXS			SJN			L_SIA			L_SRS			L_SAA			L_SAE			L_HLE			L_HME			L_UOA			L_RSP			L_UHE			L_HM2			L_HM5			R_SIA			R_SRS			R_SAA			R_SAE			R_HLE			R_HME			R_UOA			R_RSP			R_UHE			R_HM2			R_HM5			
		X1	Y1	Z1	X2	Y2	Z2	X3	Y3	Z3	X4	Y4	Z4	X5	Y5	Z5	X6	Y6	Z6	X7	Y7	Z7	X8	Y8	Z8	X9	Y9	Z9	X10	Y10	Z10	X11	Y11	Z11	X12	Y12	Z12	X13	Y13	Z13	X14	Y14	Z14	X15	Y15	Z15	X16	Y16	Z16	X17	Y17	Z17	X18	Y18	Z18	X19	Y19	Z19	X20	Y20	Z20	X21	Y21	Z21	X22	Y22	Z22	X23	Y23	Z23	X24	Y24	Z24	X25	Y25	Z25	X26	Y26	Z26	X27	Y27	Z27	X28	Y28	Z28	X29	Y29	Z29	X30	Y30	Z30	X31	Y31	Z31	X32	Y32	Z32	X33	Y33	Z33	X34	Y34	Z34	X35	Y35	Z35	X36	Y36	Z36	X37	Y37	Z37	X38	Y38	Z38	X39	Y39	Z39	X40	Y40	Z40	X41	Y41	Z41	X42	Y42	Z42	X43	Y43	Z43	X44	Y44	Z44	X45	Y45	Z45	X46	Y46	Z46	X47	Y47	Z47	X48	Y48	Z48	X49	Y49	Z49	X50	Y50	Z50	X51	Y51	Z51	X52	Y52	Z52	

131	1.3	1305.177001953125	920.7275390625002	-392.0550842285157	1109.375854492188	970.2580566406252	-306.2572326660157	1120.063354492188	976.3306884765627	-191.6336059570313	1327.392578125	938.1384887695315	-138.4670104980469	1229.104125976563	850.6723632812502	-433.7597961425782	1221.215454101563	454.2765502929689	-400.3991088867189	1243.02685546875	440.7083435058595	-283.4695739746094	1181.885986328125	410.3538818359376	-402.7705383300782	1235.186645507813	376.9396667480469	-353.7823181152344	930.1872558593752	190.2621307373047	-377.7548828125001	953.1077880859377	192.0987091064454	-291.1970520019532	872.9309692382815	209.6938781738282	-335.2721252441407	950.085144042969	69.2348098754883	-258.2913513183594	960.8201904296877	49.27248001098634	-310.7037658691407	925.1455688476565	50.79636383056642	-359.4766540527344	1250.257202148438	857.838317871094	-76.47731781005861	1338.446044921875	469.9216918945314	-158.6413269042969	1431.526733398438	451.8916625976564	-288.2727661132813	1334.469604492188	408.9712219238282	-160.6184234619141	1379.980712890625	414.0115051269532	-226.1253662109376	1321.869873046875	73.06815338134767	-195.9425811767579	1329.815307617188	85.64392852783205	-288.0176696777344	1269.301513671875	19.23316764831543	-237.7498779296876	1452.731323242188	17.30504989624024	-277.4624328613282	1461.559326171875	38.15478515625001	-220.5035400390626	1418.454223632813	19.608642578125	-166.3459625244141	1174.665161132813	1425.541870117188	-255.4134368896485	1114.237060546875	1195.409301757813	-282.7528991699219	1357.642822265625	1126.571655273438	-272.5244750976563	1309.595336914063	1346.850830078125	-269.2559509277344	1110.449584960938	1230.044067382813	-378.0234985351563	1141.397827148438	1362.847534179688	-379.4265747070313	1196.0517578125	1369.7275390625	-443.7068481445314	1252.630615234375	1380.563110351563	-457.0249328613282	1233.484252929688	1067.36083984375	-537.0564575195314	1183.531860351563	1062.574340820313	-481.1897888183595	1198.132568359375	1037.848754882813	-518.7680664062501	1346.217163085938	853.3877563476565	-474.0426330566407	1308.47998046875	846.7331542968752	-536.3424682617189	1388.551391601563	776.3740234375002	-473.8846435546876	1315.003784179688	777.7469482421877	-546.8569946289064	1107.498779296875	1215.096069335938	-192.6707916259766	1140.7978515625	1338.122802734375	-161.8903045654297	1181.07470703125	1339.247436523438	-106.1075744628907	1232.179443359375	1345.649658203125	-81.84957122802736	1172.392944335938	1031.405029296875	-19.78415679931641	1139.75927734375	1020.847961425781	-96.27832794189456	1138.28857421875	1003.58154296875	-49.75020217895509	1241.739624023438	795.6038818359377	-59.01322555541994	1191.605346679688	796.345642089844	2.858854293823243	1272.016845703125	713.6011962890626	-51.84438323974611	1198.557983398438	724.4057617187501	14.03965377807618	
132	1.31	1315.513916015625	921.826843261719	-391.7326965332032	1119.613403320313	971.2972412109377	-305.6093750000001	1130.28515625	977.5130615234377	-191.0271453857422	1337.571899414063	938.8758544921877	-137.7889404296875	1239.617553710938	852.0004882812502	-433.4582519531251	1243.950317382813	455.6483764648439	-401.5521850585939	1264.750244140625	442.7580871582032	-284.1549682617188	1204.940795898438	411.923065185547	-404.0444335937501	1257.542236328125	378.6889038085938	-354.6431579589844	950.6695556640627	195.3955993652344	-380.2330627441407	973.262878417969	196.7969360351563	-293.5143432617188	893.1821899414065	214.5413818359376	-337.7962036132813	970.8941650390627	72.88099670410158	-262.5748901367188	981.157409667969	53.45690536499025	-315.2864379882813	945.6242675781252	56.00725555419923	-363.5897521972657	1259.975830078125	858.869323730469	-75.9953079223633	1342.775390625	469.5947570800782	-158.4206695556641	1433.39501953125	454.4111633300782	-287.6992492675782	1338.202880859375	408.6143188476564	-160.5177001953125	1383.821044921875	413.3959960937501	-225.9247741699219	1322.07421875	72.91795349121095	-196.273666381836	1330.0859375	85.45156097412111	-288.3626098632813	1269.354614257813	19.32422637939453	-237.8092956542969	1452.748901367188	16.83325386047364	-277.4427795410157	1462.044189453125	37.86592864990235	-220.2966308593751	1418.41162109375	19.54809188842774	-166.1119537353516	1185.1845703125	1426.717163085938	-255.5652313232422	1124.796264648438	1196.513549804688	-282.2538452148438	1367.879516601563	1127.483520507813	-272.9027709960938	1320.114379882813	1347.842041015625	-269.6894836425782	1120.455322265625	1231.030639648438	-377.4386596679688	1151.589111328125	1363.859619140625	-379.2686767578126	1205.876831054688	1370.602661132813	-443.7213745117189	1262.39599609375	1381.309936523438	-457.4017639160157	1240.631469726563	1067.986694335938	-536.4332275390626	1190.46044921875	1064.048583984375	-480.6990966796876	1204.71240234375	1039.133666992188	-518.1787109375001	1349.617431640625	852.2363281250002	-473.2649841308595	1312.07861328125	846.3218383789065	-535.7761230468751	1390.061645507813	774.077575683594	-472.6758117675782	1316.976928710938	777.156188964844	-546.1543579101564	1118.013427734375	1216.418579101563	-192.1281738281251	1151.533935546875	1339.420288085938	-161.6617736816407	1192.072143554688	1340.55615234375	-106.0202941894532	1243.3779296875	1346.90283203125	-82.0220184326172	1186.699951171875	1032.147216796875	-18.5728874206543	1153.365600585938	1021.047180175781	-94.6939163208008	1152.537231445313	1003.819519042969	-48.22602844238283	1259.196166992188	797.4373168945315	-58.67289352416994	1209.591064453125	797.3164062500002	3.396914243698121	1291.130249023438	716.0274047851564	-51.65748214721681	1217.962524414063	725.5698242187501	14.5918607711792	
133	1.32	1325.78857421875	923.0288085937502	-391.4285583496095	1129.786987304688	972.3599853515627	-305.0578308105469	1140.34375	978.643737792969	-190.5188903808594	1347.584838867188	939.516784667969	-137.0814056396485	1250.087890625	853.458190917969	-433.2628784179689	1266.566040039063	457.4739685058595	-402.4508361816407	1285.747802734375	445.5039672851564	-284.4690551757813	1227.96533203125	413.8386535644532	-405.0193481445314	1279.965087890625	380.8538513183594	-355.1831054687501	971.9258422851565	199.7741851806641	-382.4280700683594	994.2479248046877	200.8393096923829	-295.5572204589844	914.0428466796877	218.000717163086	-339.9489135742188	993.917419433594	75.79342651367189	-267.0251464843751	1003.919311523438	57.4972496032715	-320.1120605468751	968.4379882812502	60.84555053710939	-367.9587097167969	1269.31298828125	859.734313964844	-75.59355926513673	1346.837768554688	469.257049560547	-158.17236328125	1433.569213867188	457.009246826172	-287.0294189453126	1341.69580078125	408.2583007812501	-160.3938598632813	1387.467407226563	412.799774169922	-225.6608123779297	1322.214599609375	72.7486038208008	-196.5871124267579	1330.305541992188	85.28296661376955	-288.6198730468751	1269.3662109375	19.41018867492676	-237.8690032958985	1452.779296875	16.46211051940918	-277.4009704589844	1462.46142578125	37.56491470336915	-220.0703430175782	1418.337280273438	19.424560546875	-165.9229888916016	1195.622924804688	1427.88671875	-255.7584686279297	1135.251831054688	1197.61376953125	-281.7285156250001	1378.011108398438	1128.3876953125	-273.2769470214844	1330.5419921875	1348.815673828125	-270.1564025878907	1130.35107421875	1231.96044921875	-376.8037719726563	1161.654174804688	1364.818237304688	-379.1185607910157	1215.56689453125	1371.408325195313	-443.7619628906251	1272.017456054688	1381.992309570313	-457.8275756835939	1247.608276367188	1068.58837890625	-535.8620605468751	1197.233154296875	1065.483642578125	-480.2633666992189	1211.14404296875	1040.3818359375	-517.6429443359376	1352.8291015625	851.1573486328127	-472.4486694335939	1315.589477539063	845.972839355469	-535.2219848632814	1391.381469726563	771.9282836914065	-471.3796691894532	1318.915283203125	776.6506958007815	-545.4640502929689	1128.411987304688	1217.763793945313	-191.5724182128907	1162.181396484375	1340.744750976563	-161.4530639648438	1202.94970703125	1341.934326171875	-105.9924011230469	1254.492431640625	1348.208740234375	-82.24078369140626	1201.0244140625	1032.948608398438	-17.3926067352295	1166.972045898438	1021.308227539063	-93.13867187500001	1166.814331054688	1004.096618652344	-46.73455810546876	1276.812133789063	799.4466552734377	-58.38122940063478	1227.670043945313	798.4207763671877	3.834309101104737	1310.44873046875	718.6657714843751	-51.53361892700197	1237.520629882813	726.9014282226564	15.04672813415528	
134	1.33	1336.031616210938	924.3419189453127	-391.1144104003907	1139.91455078125	973.426208496094	-304.6281433105469	1150.267456054688	979.7106933593752	-190.1258544921875	1357.448364257813	940.1140747070315	-136.3593139648438	1260.5966796875	855.0061035156252	-433.1492614746095	1288.938720703125	459.7290039062501	-403.0950622558595	1306.137939453125	448.8352050781251	-284.4595947265626	1250.847045898438	416.0803222656251	-405.7217712402345	1302.378540039063	383.3960266113282	-355.4656066894532	993.9149169921877	203.2531433105469	-384.377655029297	1016.01953125	204.0794219970704	-297.3673400878907	935.4856567382815	220.0172424316407	-341.7865905761719	1018.900939941406	77.89720153808595	-271.5516662597657	1028.855102539063	61.20423889160158	-325.0544433593751	993.344909667969	65.10503387451173	-372.4727783203126	1278.3349609375	860.451599121094	-75.27463531494142	1350.695068359375	468.9225158691407	-157.9118347167969	1431.930908203125	459.6321716308595	-286.3028564453126	1344.997436523438	407.9168395996095	-160.2576599121094	1390.956298828125	412.2273254394532	-225.3592529296876	1322.32666015625	72.5773162841797	-196.8782348632813	1330.48681640625	85.14333343505861	-288.7923583984376	1269.362915039063	19.504150390625	-237.922592163086	1452.832275390625	16.16899681091309	-277.3553161621094	1462.832763671875	37.24658203125001	-219.8462677001954	1418.26025390625	19.25568389892578	-165.7738952636719	1205.985717773438	1429.041381835938	-255.9752044677735	1145.606201171875	1198.70556640625	-281.1798400878907	1388.057739257813	1129.293334960938	-273.6298522949219	1340.883544921875	1349.769409179688	-270.6390991210938	1140.154907226563	1232.835693359375	-376.1248779296876	1171.603881835938	1365.721801757813	-378.9644775390626	1225.14111328125	1372.154541015625	-443.813446044922	1281.51611328125	1382.620849609375	-458.2782592773439	1254.416015625	1069.182250976563	-535.3303833007814	1203.867065429688	1066.89501953125	-479.8584289550782	1217.440795898438	1041.606567382813	-517.1416015625001	1355.879272460938	850.1627197265627	-471.6076965332032	1319.015014648438	845.691833496094	-534.6798706054689	1392.553466796875	769.9443969726565	-470.0342102050782	1320.831787109375	776.237976074219	-544.7951049804689	1138.716552734375	1219.118896484375	-190.9986419677735	1172.753051757813	1342.08447265625	-161.2519073486328	1213.723388671875	1343.37060546875	-106.0118942260742	1265.529418945313	1349.567016601563	-82.4949417114258	1215.350708007813	1033.813842773438	-16.25070381164551	1180.574951171875	1021.64453125	-91.63451385498048	1181.109008789063	1004.417907714844	-45.29271697998048	1294.565551757813	801.647399902344	-58.15226364135744	1245.80224609375	799.6716918945315	4.160315036773683	1329.920288085938	721.5168457031251	-51.49147033691408	1257.184814453125	728.4132080078126	15.39084339141846	
